<svg width="41" height="41" viewBox="0 0 41 41" fill="none" xmlns="http://www.w3.org/2000/svg">
<g clip-path="url(#clip0_1038_931)">
<path d="M39.5945 27.3889L35.2636 11.7038C34.3389 8.34858 32.3238 5.40057 29.5391 3.329C26.7544 1.25743 23.3602 0.181334 19.8967 0.271986C16.4331 0.362638 13.0992 1.61483 10.4257 3.82926C7.75209 6.04369 5.89246 9.09311 5.14275 12.4922L1.79302 27.64C1.63093 28.3738 1.63489 29.1349 1.80459 29.867C1.97429 30.5991 2.30541 31.2836 2.77351 31.87C3.24161 32.4564 3.83476 32.9296 4.50919 33.2549C5.18361 33.5802 5.92211 33.7491 6.6702 33.7493H12.6784C13.0607 35.6412 14.0821 37.342 15.5696 38.5638C17.0571 39.7855 18.9192 40.4529 20.8403 40.4529C22.7615 40.4529 24.6235 39.7855 26.111 38.5638C27.5985 37.342 28.62 35.6412 29.0023 33.7493H34.7823C35.552 33.749 36.3112 33.5699 37.0008 33.2262C37.6903 32.8824 38.2915 32.3833 38.7575 31.7676C39.2234 31.152 39.5416 30.4365 39.687 29.6769C39.8325 28.9174 39.7997 28.1344 39.5945 27.3889ZM20.8403 37.0969C19.8105 37.0926 18.8071 36.7687 17.9675 36.1695C17.1279 35.5702 16.493 34.725 16.1497 33.7493H25.5309C25.1877 34.725 24.5528 35.5702 23.7132 36.1695C22.8735 36.7687 21.8702 37.0926 20.8403 37.0969ZM36.1065 29.7406C35.9511 29.9476 35.7497 30.1152 35.5183 30.23C35.2869 30.3448 35.032 30.4036 34.7739 30.4017H6.6702C6.42078 30.4017 6.17455 30.3454 5.94969 30.2369C5.72483 30.1284 5.52708 29.9706 5.37104 29.7751C5.21499 29.5796 5.10464 29.3514 5.04811 29.1072C4.99159 28.8631 4.99035 28.6094 5.04447 28.3647L8.3942 13.2169C8.98445 10.5493 10.4452 8.1564 12.5442 6.41875C14.6433 4.6811 17.2601 3.69838 19.9788 3.62681C22.6975 3.55524 25.3619 4.39894 27.5486 6.02377C29.7353 7.6486 31.3187 9.96132 32.0472 12.5943L36.378 28.2794C36.4487 28.5274 36.461 28.7885 36.4139 29.0422C36.3667 29.2958 36.2615 29.5349 36.1065 29.7406Z" fill="#FF5959"/>
</g>
<defs>
<clipPath id="clip0_1038_931">
<rect width="39.9769" height="40.1709" fill="white" transform="translate(0.851807 0.273499)"/>
</clipPath>
</defs>
</svg>
