<svg width="41" height="41" viewBox="0 0 41 41" fill="none" xmlns="http://www.w3.org/2000/svg">
<g clip-path="url(#clip0_1038_927)">
<path d="M38.7591 7.09754C38.2906 6.53253 37.704 6.07812 37.041 5.76656C36.378 5.45501 35.6549 5.29397 34.923 5.29487H7.99194L7.92198 4.70737C7.77881 3.4862 7.19471 2.36027 6.28041 1.54303C5.36611 0.725795 4.18518 0.274071 2.96151 0.273499L2.59173 0.273499C2.14996 0.273499 1.72628 0.449844 1.4139 0.76374C1.10152 1.07764 0.926025 1.50337 0.926025 1.94729C0.926025 2.3912 1.10152 2.81694 1.4139 3.13084C1.72628 3.44473 2.14996 3.62108 2.59173 3.62108H2.96151C3.3695 3.62113 3.76328 3.77164 4.06816 4.04407C4.37304 4.31649 4.56782 4.69188 4.61556 5.09903L6.90756 24.6824C7.14551 26.719 8.11932 28.597 9.64416 29.9598C11.169 31.3227 13.1387 32.0755 15.1794 32.0755H32.5744C33.0161 32.0755 33.4398 31.8991 33.7522 31.5853C34.0646 31.2714 34.2401 30.8456 34.2401 30.4017C34.2401 29.9578 34.0646 29.5321 33.7522 29.2182C33.4398 28.9043 33.0161 28.7279 32.5744 28.7279H15.1794C14.1485 28.725 13.1436 28.4017 12.3027 27.8024C11.4617 27.2031 10.8258 26.3571 10.4822 25.3803H30.3373C32.29 25.3805 34.1807 24.6911 35.6789 23.4328C37.1772 22.1744 38.1879 20.4271 38.5343 18.496L39.8418 11.2084C39.9724 10.4853 39.943 9.74224 39.7559 9.03183C39.5688 8.32143 39.2285 7.66106 38.7591 7.09754ZM36.5721 10.6142L35.2628 17.9018C35.0548 19.0618 34.4474 20.1112 33.5469 20.8665C32.6464 21.6217 31.5103 22.0345 30.3373 22.0328H9.95247L8.38504 8.64244H34.923C35.1677 8.64098 35.4097 8.6937 35.6318 8.79686C35.8539 8.90002 36.0507 9.05109 36.2081 9.23933C36.3656 9.42757 36.4798 9.64834 36.5427 9.88596C36.6056 10.1236 36.6156 10.3722 36.5721 10.6142Z" fill="#FF5959"/>
<path d="M12.586 40.4445C14.4259 40.4445 15.9174 38.9457 15.9174 37.0969C15.9174 35.2481 14.4259 33.7493 12.586 33.7493C10.7462 33.7493 9.25464 35.2481 9.25464 37.0969C9.25464 38.9457 10.7462 40.4445 12.586 40.4445Z" fill="#FF5959"/>
<path d="M29.243 40.4445C31.0829 40.4445 32.5744 38.9457 32.5744 37.0969C32.5744 35.2481 31.0829 33.7493 29.243 33.7493C27.4031 33.7493 25.9116 35.2481 25.9116 37.0969C25.9116 38.9457 27.4031 40.4445 29.243 40.4445Z" fill="#FF5959"/>
</g>
<defs>
<clipPath id="clip0_1038_927">
<rect width="39.9769" height="40.1709" fill="white" transform="translate(0.926025 0.273499)"/>
</clipPath>
</defs>
</svg>
