<svg width="41" height="41" viewBox="0 0 41 41" fill="none" xmlns="http://www.w3.org/2000/svg">
<g clip-path="url(#clip0_1038_934)">
<path d="M20.7663 0.273499C16.8129 0.273499 12.9484 1.45149 9.66129 3.65851C6.37421 5.86553 3.81225 9.00245 2.29937 12.6726C0.786493 16.3427 0.390655 20.3813 1.16191 24.2775C1.93317 28.1737 3.83688 31.7525 6.63232 34.5615C9.42775 37.3705 12.9893 39.2835 16.8667 40.0585C20.7441 40.8335 24.7631 40.4357 28.4155 38.9155C32.0679 37.3953 35.1897 34.8209 37.386 31.5179C39.5824 28.2148 40.7547 24.3315 40.7547 20.359C40.749 15.0337 38.6412 9.92827 34.8939 6.16276C31.1466 2.39725 26.0658 0.279258 20.7663 0.273499ZM20.7663 37.0969C17.4718 37.0969 14.2514 36.1152 11.5121 34.276C8.77289 32.4368 6.63792 29.8227 5.37719 26.7643C4.11646 23.7058 3.78659 20.3404 4.42931 17.0936C5.07202 13.8467 6.65845 10.8643 8.98798 8.52349C11.3175 6.18266 14.2855 4.58853 17.5166 3.94269C20.7478 3.29686 24.097 3.62832 27.1406 4.89517C30.1843 6.16203 32.7858 8.30736 34.6161 11.0599C36.4464 13.8124 37.4233 17.0485 37.4233 20.359C37.4184 24.7966 35.662 29.0512 32.5392 32.1891C29.4165 35.327 25.1825 37.092 20.7663 37.0969Z" fill="#FF5959"/>
<path d="M21.9606 8.7479C21.0001 8.57204 20.0128 8.61046 19.0686 8.86045C18.1245 9.11044 17.2465 9.56589 16.497 10.1946C15.7474 10.8232 15.1444 11.6098 14.7308 12.4985C14.3172 13.3873 14.1031 14.3565 14.1035 15.3376C14.1035 15.7815 14.279 16.2073 14.5914 16.5212C14.9038 16.8351 15.3274 17.0114 15.7692 17.0114C16.211 17.0114 16.6347 16.8351 16.947 16.5212C17.2594 16.2073 17.4349 15.7815 17.4349 15.3376C17.4345 14.8451 17.5422 14.3586 17.7504 13.9128C17.9586 13.467 18.2621 13.0728 18.6393 12.7584C19.0164 12.4439 19.458 12.217 19.9325 12.0937C20.407 11.9705 20.9027 11.9539 21.3843 12.0453C22.0423 12.1736 22.6473 12.4962 23.122 12.9717C23.5968 13.4472 23.9196 14.0542 24.0494 14.715C24.1805 15.4086 24.09 16.1261 23.7908 16.7649C23.4917 17.4037 22.9992 17.9312 22.3837 18.2718C21.3646 18.8651 20.5224 19.7221 19.945 20.7537C19.3676 21.7852 19.076 22.9535 19.1006 24.1367V25.3803C19.1006 25.8243 19.2761 26.25 19.5885 26.5639C19.9009 26.8778 20.3246 27.0541 20.7663 27.0541C21.2081 27.0541 21.6318 26.8778 21.9442 26.5639C22.2565 26.25 22.432 25.8243 22.432 25.3803V24.1367C22.4111 23.5543 22.5433 22.9766 22.8153 22.4617C23.0872 21.9469 23.4893 21.5132 23.9811 21.2042C25.188 20.5382 26.1598 19.5128 26.763 18.2691C27.3662 17.0254 27.5711 15.6244 27.3496 14.2589C27.1281 12.8934 26.4911 11.6303 25.5261 10.6435C24.5611 9.6566 23.3155 8.99439 21.9606 8.7479Z" fill="#FF5959"/>
<path d="M22.432 30.4017C22.432 29.4773 21.6862 28.7279 20.7663 28.7279C19.8463 28.7279 19.1006 29.4773 19.1006 30.4017C19.1006 31.3261 19.8463 32.0755 20.7663 32.0755C21.6862 32.0755 22.432 31.3261 22.432 30.4017Z" fill="#FF5959"/>
</g>
<defs>
<clipPath id="clip0_1038_934">
<rect width="39.9769" height="40.1709" fill="white" transform="translate(0.777832 0.273499)"/>
</clipPath>
</defs>
</svg>
