<svg width="40" height="41" viewBox="0 0 40 41" fill="none" xmlns="http://www.w3.org/2000/svg">
<path d="M19.9884 0.273499C8.96648 0.273499 0 9.28351 0 20.359C0 31.4344 8.96648 40.4444 19.9884 40.4444C31.0104 40.4444 39.9769 31.4344 39.9769 20.359C39.9769 9.28351 31.0104 0.273499 19.9884 0.273499ZM13.3256 35.6976V35.4231C13.3256 31.7307 16.3139 28.7279 19.9884 28.7279C23.663 28.7279 26.6512 31.7307 26.6512 35.4231V35.6976C24.6091 36.5964 22.3571 37.0969 19.9884 37.0969C17.6198 37.0969 15.3678 36.5964 13.3256 35.6976ZM29.8577 33.8346C29.0982 29.0493 24.9622 25.3803 19.9884 25.3803C15.0146 25.3803 10.8804 29.0493 10.1191 33.8346C8.01521 32.2808 6.30455 30.2515 5.12541 27.9105C3.94626 25.5696 3.33171 22.9827 3.33141 20.359C3.33141 11.1297 10.8037 3.62108 19.9884 3.62108C29.1731 3.62108 36.6455 11.1297 36.6455 20.359C36.6452 22.9827 36.0306 25.5696 34.8515 27.9105C33.6723 30.2515 31.9617 32.2808 29.8577 33.8346ZM19.9884 8.64244C16.3139 8.64244 13.3256 11.6452 13.3256 15.3376C13.3256 19.03 16.3139 22.0328 19.9884 22.0328C23.663 22.0328 26.6512 19.03 26.6512 15.3376C26.6512 11.6452 23.663 8.64244 19.9884 8.64244ZM19.9884 18.6852C18.1512 18.6852 16.657 17.1838 16.657 15.3376C16.657 13.4914 18.1512 11.99 19.9884 11.99C21.8257 11.99 23.3198 13.4914 23.3198 15.3376C23.3198 17.1838 21.8257 18.6852 19.9884 18.6852Z" fill="#FF5959"/>
</svg>
